<?xml version="1.0" encoding="UTF-8"?>
<svg width="28px" height="28px" viewBox="0 0 28 28" version="1.1" xmlns="http://www.w3.org/2000/svg" xmlns:xlink="http://www.w3.org/1999/xlink">
    <!-- Generator: Sketch 64 (93537) - https://sketch.com -->
    <title>search</title>
    <desc>Created with Sketch.</desc>
    <g id="Page-1" stroke="none" stroke-width="1" fill="none" fill-rule="evenodd">
        <g id="Headers---1" transform="translate(-1167.000000, -85.000000)" fill="#000000" fill-rule="nonzero">
            <g id="header-1" transform="translate(56.000000, 68.000000)">
                <g id="search" transform="translate(1111.000000, 17.000000)">
                    <path d="M3.50228571,3.50228571 C-1.16742857,8.17085714 -1.16742857,15.74 3.50228571,20.4085714 C7.92971429,24.836 14.96,25.0571429 19.6562857,21.0871429 L26.1574286,27.5882857 C26.5514,27.9833714 27.1953714,27.9833714 27.5882286,27.5882857 C27.9833143,27.1954286 27.9833143,26.5514571 27.5882286,26.1574857 L21.0870857,19.6563429 C25.0570857,14.9597714 24.8348,7.92977143 20.4085143,3.50234286 C15.7399429,-1.16737143 8.16965714,-1.16737143 3.50222857,3.50234286 M4.93302857,4.93314286 C8.80588571,1.06028571 15.1050286,1.06028571 18.9776,4.93314286 C22.5947429,8.55028571 22.8436,14.4431429 19.5423429,18.3505714 L18.9965714,18.9967714 L18.3503714,19.5425429 C14.4429429,22.8439714 8.55008571,22.5951143 4.93294286,18.9778 C1.06008571,15.1049429 1.06008571,8.8058 4.93294286,4.93322857" id="Shape"></path>
                </g>
            </g>
        </g>
    </g>
</svg>