<?xml version="1.0" encoding="UTF-8"?>
<svg width="36px" height="36px" viewBox="0 0 36 36" version="1.1" xmlns="http://www.w3.org/2000/svg" xmlns:xlink="http://www.w3.org/1999/xlink">
    <!-- Generator: Sketch 64 (93537) - https://sketch.com -->
    <title>close</title>
    <desc>Created with Sketch.</desc>
    <g id="Page-1" stroke="none" stroke-width="1" fill="none" fill-rule="evenodd">
        <g id="close" transform="translate(2.000000, 2.000000)" fill="#000000" fill-rule="nonzero">
            <path d="M30.8443703,-0.905894127 C31.4360926,-1.49758825 32.3954412,-1.49756542 32.9871353,-0.905843127 C33.5591063,-0.333844914 33.5781507,0.581679617 33.0442842,1.17655414 L32.9870843,1.23692184 L1.15652663,33.0659643 C0.564804343,33.6576585 -0.394544208,33.6576356 -0.986238331,33.0659133 C-1.55820932,32.4939151 -1.57725368,31.5783906 -1.04338723,30.9835161 L-0.986187331,30.9231484 L30.8443703,-0.905894127 Z" id="Path"></path>
            <path d="M-0.986541363,-0.905843127 C-0.414570378,-1.47784134 0.500953246,-1.49692928 1.09585318,-0.96309115 L1.1562236,-0.905894127 L32.9867813,30.9231484 C33.5785036,31.5148425 33.5785264,32.4741911 32.9868323,33.0659133 C32.4148613,33.6379116 31.4993377,33.6569995 30.9044377,33.1231614 L30.8440673,33.0659643 L-0.986490363,1.23692184 C-1.57821265,0.645227714 -1.57823549,-0.314120838 -0.986541363,-0.905843127 Z" id="Path"></path>
        </g>
    </g>
</svg>