<?xml version="1.0" encoding="UTF-8"?>
<svg width="92px" height="68px" viewBox="0 0 92 68" version="1.1" xmlns="http://www.w3.org/2000/svg" xmlns:xlink="http://www.w3.org/1999/xlink">
    <!-- Generator: Sketch 64 (93537) - https://sketch.com -->
    <title>burger</title>
    <desc>Created with Sketch.</desc>
    <g id="Page-1" stroke="none" stroke-width="1" fill="none" fill-rule="evenodd">
        <g id="burger" fill="#BC43A7" fill-rule="nonzero">
            <path d="M75.168,40.25 C71.6016,40.13281 68.3047,38.3242 66.293,35.375 C64.3555,33.168 63.1446,31.918 60.5821,31.918 C58.0196,31.918 56.7891,33.168 54.8516,35.375 L54.855507,35.375 C52.847707,38.3203 49.558607,40.1289 46.000007,40.25 C42.441407,40.12891 39.152307,38.3203 37.144507,35.375 C35.187507,33.168 33.980407,31.918 31.417907,31.918 C28.855407,31.918 27.624907,33.168 25.710907,35.375 L25.707,35.375 C23.6953,38.3203 20.3984,40.1289 16.832,40.25 C13.2734,40.13281 9.9804,38.3203 7.9804,35.375 C6.0429,33.168 4.832,31.918 2.2499,31.918 C1.0976,31.918 0.1679,30.98441 0.1679,29.8321 C0.1679,28.6837 1.09759,27.7501 2.2499,27.7501 C5.8085,27.87119 9.0976,29.6798 11.1054,32.6251 C13.0429,34.8321 14.2499,36.0821 16.832,36.0821 C19.4141,36.0821 20.625,34.8321 22.539,32.6251 L22.542907,32.6251 C24.554607,29.6798 27.851507,27.8712 31.417907,27.7501 C34.980407,27.87119 38.277307,29.6798 40.292907,32.6251 C42.187407,34.8321 43.394507,36.0821 45.999907,36.0821 C48.605307,36.0821 49.792907,34.8321 51.730407,32.6251 C53.734307,29.6798 57.023407,27.8712 60.582007,27.7501 C64.144507,27.87119 67.433607,29.6798 69.437507,32.6251 C71.355507,34.8321 72.582007,36.0821 75.168007,36.0821 C77.750007,36.0821 78.961007,34.8321 80.898507,32.6251 L80.8946,32.6251 C82.8985,29.6798 86.1876,27.8673 89.7501,27.7501 C90.9024,27.7501 91.8321,28.68369 91.8321,29.8321 C91.8321,30.9844 90.90241,31.918 89.7501,31.918 C87.1681,31.918 85.9571,33.168 84.0196,35.375 C82.0157,38.3203 78.7266,40.1289 75.168,40.25 Z" id="Path"></path>
            <path d="M74.27,49.48 L17.731,49.48 C12.1998,49.48 7.09,46.5269 4.325,41.7378 C1.5594,36.9487 1.5594,31.0498 4.325,26.2608 C7.0906,21.4717 12.2,18.5186 17.731,18.5186 L74.27,18.5186 C79.8012,18.5186 84.911,21.4717 87.676,26.2608 C90.4416,31.0499 90.4416,36.9488 87.676,41.7378 C84.9104,46.5269 79.801,49.48 74.27,49.48 Z M17.731,22.687 C11.481,22.687 6.419,27.7534 6.419,33.999 C6.419,40.2446 11.4815,45.311 17.731,45.311 L74.27,45.311 C80.52,45.311 85.582,40.2446 85.582,33.999 C85.582,27.7534 80.5195,22.687 74.27,22.687 L17.731,22.687 Z" id="Shape"></path>
            <path d="M82.855,22.688 L9.144,22.688 C6.351,22.80909 3.6674,21.5942 1.9174,19.4185 C0.8354,17.9888 0.5307,16.1138 1.1049,14.4185 C5.7065,0.6685 26.1869,0.6685 45.9999,0.6685 C65.8129,0.6685 86.2929,0.6685 90.8949,14.3985 L90.8949,14.394593 C91.46912,16.093793 91.16443,17.964893 90.0824,19.394593 C88.3363,21.582093 85.6527,22.804793 82.8558,22.687593 L82.855,22.688 Z M46,4.833 C24.168,4.833 8.5,5.60253 5.062,15.708 C4.90966,16.13769 4.995594,16.61425 5.29247,16.958 C6.26513,18.0518 7.68697,18.626 9.14407,18.5205 L82.85507,18.5205 C84.31207,18.62597 85.73397,18.05175 86.70667,16.958 C87.00355,16.61425 87.08948,16.13769 86.93714,15.708 C83.49964,5.606 67.83214,4.833 45.99914,4.833 L46,4.833 Z" id="Shape"></path>
            <path d="M46,67.332 C26.188,67.332 5.707,67.332 1.105,53.602 L1.105,53.605907 C0.52297,51.898907 0.82766,50.020007 1.9175,48.582507 C3.6636,46.398907 6.3472,45.176307 9.1441,45.293407 L82.8551,45.293407 C85.652,45.176217 88.3356,46.398907 90.0817,48.582507 C91.1637,50.012207 91.4684,51.887207 90.8942,53.582507 C86.2926,67.332507 65.8122,67.332507 45.9992,67.332507 L46,67.332 Z M9.145,49.48 C7.688,49.37453 6.2661,49.94875 5.2934,51.0425 C4.99652,51.38625 4.91059,51.86281 5.06293,52.2925 C8.50043,62.3945 24.16793,63.1675 46.00093,63.1675 C67.83393,63.1675 83.50093,62.39797 86.93893,52.2925 C87.09127,51.86281 87.005336,51.38625 86.70846,51.0425 C85.7358,49.9487 84.31396,49.3745 82.85686,49.48 L9.145,49.48 Z" id="Shape"></path>
        </g>
    </g>
</svg>