<?xml version="1.0" encoding="UTF-8"?>
<svg width="81px" height="81px" viewBox="0 0 81 81" version="1.1" xmlns="http://www.w3.org/2000/svg" xmlns:xlink="http://www.w3.org/1999/xlink">
    <!-- Generator: Sketch 64 (93537) - https://sketch.com -->
    <title>np_website_1300423_000000</title>
    <desc>Created with Sketch.</desc>
    <g id="Page-1" stroke="none" stroke-width="1" fill="none" fill-rule="evenodd">
        <g id="Desktop" transform="translate(-241.000000, -80.000000)" fill="#FFFFFF" fill-rule="nonzero">
            <g id="np_website_1300423_000000" transform="translate(241.000000, 80.000000)">
                <path d="M8.87841,0 L72.12483,0 C74.567466,0 76.772853,0.987228 78.418125,2.581875 C80.016012,4.223988 81,6.432534 81,8.87517 L81,72.12483 C81,74.567466 80.012772,76.772853 78.418125,78.418125 C76.776012,80.016012 74.567466,81 72.12483,81 L8.87517,81 C6.432534,81 4.227147,80.012772 2.581875,78.418125 C0.983988,76.776012 0,74.567466 0,72.12483 L0,8.87517 C0,6.432534 0.987228,4.227147 2.581875,2.581875 C4.223988,0.983988 6.432534,0 8.87517,0 L8.87841,0 Z M46.20807,52.73262 L52.406433,58.978449 C53.393661,59.965677 53.393661,61.560324 52.406433,62.547471 C51.419205,63.534618 49.824558,63.534699 48.837411,62.547471 L42.639048,56.301642 L37.3329,61.60779 C36.345672,62.595018 34.751025,62.595018 33.763878,61.60779 C33.3873576,61.2312696 33.1532109,60.8104422 33.0582951,60.339006 L27.9388521,41.133096 C27.5623317,39.816846 28.3628385,38.408823 29.7233631,38.079801 C30.1916403,37.9374192 30.6156591,37.9374192 31.0396131,38.079801 L50.3370531,43.243551 C51.6976101,43.5726135 52.4981331,44.980596 52.1215641,46.341153 C51.9791823,46.7651394 51.7925016,47.1384927 51.4634391,47.467539 L46.2047571,52.726221 L46.20807,52.73262 Z M39.399048,45.547029 L33.950502,44.09154 L36.86148,54.93825 L40.807071,50.948352 L40.8545321,50.948352 L44.8001231,47.002761 L39.399048,45.547029 Z M25.312338,10.141119 C26.720361,10.141119 27.846747,11.267505 27.846747,12.675528 C27.846747,14.036085 26.720361,15.16563 25.312338,15.16563 C23.904315,15.16563 22.777929,14.039244 22.777929,12.675528 C22.777929,11.267505 23.904315,10.141119 25.312338,10.141119 Z M32.918724,10.141119 L63.300204,10.141119 C64.660761,10.141119 65.834613,11.267505 65.834613,12.675528 C65.834613,14.036085 64.660761,15.16563 63.300204,15.16563 L32.918724,15.16563 C31.510701,15.16563 30.384315,14.039244 30.384315,12.675528 C30.384315,11.267505 31.510701,10.141119 32.918724,10.141119 Z M17.706114,10.141119 C19.114137,10.141119 20.240523,11.267505 20.240523,12.675528 C20.240523,14.036085 19.114137,15.16563 17.706114,15.16563 C16.345557,15.16563 15.171705,14.039244 15.171705,12.675528 C15.171705,11.267505 16.345557,10.141119 17.706114,10.141119 Z M75.931344,25.309989 L5.074974,25.309989 L5.074974,72.125559 C5.074974,73.204479 5.4989604,74.144241 6.20136,74.802366 C6.859485,75.5079489 7.799247,75.928752 8.878167,75.928752 L72.127827,75.928752 C73.206747,75.928752 74.146509,75.5047656 74.804634,74.802366 C75.5102169,74.144241 75.931344,73.204479 75.931344,72.125559 L75.931344,25.309989 Z M9.346914,5.072949 C8.173062,5.072949 7.094142,5.5412262 6.341085,6.341733 C5.5437372,7.0916148 5.072301,8.17371 5.072301,9.347562 L5.072301,20.241252 L75.928671,20.241252 L75.928671,9.347562 C75.928671,8.17371 75.4603938,7.09479 74.659887,6.341733 C73.9100052,5.5443852 72.82791,5.072949 71.654058,5.072949 L9.343998,5.072949 L9.346914,5.072949 Z" id="Shape"></path>
            </g>
        </g>
    </g>
</svg>