<?xml version="1.0" encoding="UTF-8"?>
<svg width="568px" height="219px" viewBox="0 0 568 219" version="1.1" xmlns="http://www.w3.org/2000/svg" xmlns:xlink="http://www.w3.org/1999/xlink">
    <!-- Generator: Sketch 64 (93537) - https://sketch.com -->
    <title>pattern</title>
    <desc>Created with Sketch.</desc>
    <g id="Page-1" stroke="none" stroke-width="1" fill="none" fill-rule="evenodd">
        <g id="pattern">
            <circle id="Oval" fill="#7A43BC" cx="28.5" cy="28.5" r="28.5"></circle>
            <circle id="Oval-Copy" fill="#7A43BC" opacity="0.275878906" cx="101.5" cy="28.5" r="28.5"></circle>
            <circle id="Oval-Copy-2" fill="#7A43BC" cx="174.5" cy="28.5" r="28.5"></circle>
            <circle id="Oval-Copy-3" fill="#7A43BC" opacity="0.275878906" cx="247.5" cy="28.5" r="28.5"></circle>
            <circle id="Oval-Copy-4" fill="#7A43BC" cx="320.5" cy="28.5" r="28.5"></circle>
            <circle id="Oval-Copy-5" fill="#7A43BC" opacity="0.275878906" cx="393.5" cy="28.5" r="28.5"></circle>
            <circle id="Oval-Copy-6" fill="#7A43BC" cx="466.5" cy="28.5" r="28.5"></circle>
            <circle id="Oval-Copy-7" fill="#7A43BC" opacity="0.275878906" cx="539.5" cy="28.5" r="28.5"></circle>
            <circle id="Oval-Copy-8" fill="#BC43A7" cx="28.5" cy="190.5" r="28.5"></circle>
            <circle id="Oval-Copy-9" fill="#BC43A7" opacity="0.275878906" cx="101.5" cy="190.5" r="28.5"></circle>
            <circle id="Oval-Copy-10" fill="#BC43A7" cx="174.5" cy="190.5" r="28.5"></circle>
            <circle id="Oval-Copy-11" fill="#BC43A7" opacity="0.275878906" cx="247.5" cy="190.5" r="28.5"></circle>
            <circle id="Oval-Copy-12" fill="#BC43A7" cx="320.5" cy="190.5" r="28.5"></circle>
            <circle id="Oval-Copy-13" fill="#BC43A7" opacity="0.275878906" cx="393.5" cy="190.5" r="28.5"></circle>
            <circle id="Oval-Copy-14" fill="#BC43A7" cx="466.5" cy="190.5" r="28.5"></circle>
            <circle id="Oval-Copy-15" fill="#BC43A7" opacity="0.275878906" cx="539.5" cy="190.5" r="28.5"></circle>
            <rect id="Rectangle" fill="#43BCA7" x="0" y="81" width="57" height="57"></rect>
            <rect id="Rectangle-Copy-5" fill="#43BCA7" opacity="0.275878906" x="73" y="81" width="57" height="57"></rect>
            <rect id="Rectangle-Copy-6" fill="#43BCA7" x="146" y="81" width="57" height="57"></rect>
            <rect id="Rectangle-Copy-7" fill="#43BCA7" opacity="0.275878906" x="219" y="81" width="57" height="57"></rect>
            <rect id="Rectangle-Copy-8" fill="#43BCA7" x="292" y="81" width="57" height="57"></rect>
            <rect id="Rectangle-Copy-9" fill="#43BCA7" opacity="0.275878906" x="365" y="81" width="57" height="57"></rect>
            <rect id="Rectangle-Copy-10" fill="#43BCA7" x="438" y="81" width="57" height="57"></rect>
            <rect id="Rectangle-Copy-11" fill="#43BCA7" opacity="0.275878906" x="511" y="81" width="57" height="57"></rect>
        </g>
    </g>
</svg>